<svg id="svg" version="1.1" xmlns="http://www.w3.org/2000/svg" xmlns:xlink="http://www.w3.org/1999/xlink" width="400" height="400" viewBox="0, 0, 400,400"><g id="svgg"><path id="path0" d="M353.667 188.400 C 331.392 211.658,299.197 245.269,282.124 263.093 L 251.081 295.500 296.624 295.673 C 344.842 295.856,345.975 295.829,351.787 294.322 C 377.558 287.642,394.009 265.308,399.655 229.333 C 399.866 227.988,399.996 216.528,399.997 199.092 L 400.000 171.018 398.989 165.092 C 398.433 161.833,397.806 158.567,397.597 157.833 C 397.387 157.100,397.242 156.387,397.274 156.250 C 397.307 156.112,397.193 156.000,397.022 156.000 C 396.851 156.000,396.779 155.625,396.862 155.167 C 396.954 154.661,396.857 154.333,396.618 154.333 C 396.400 154.333,396.321 154.235,396.442 154.114 C 396.562 153.993,396.475 153.665,396.247 153.383 C 395.908 152.964,395.918 152.923,396.302 153.154 C 396.648 153.363,396.695 153.316,396.484 152.974 C 396.327 152.720,396.157 152.284,396.108 152.006 C 395.733 149.912,395.555 149.363,395.300 149.521 C 395.139 149.620,395.103 149.453,395.219 149.150 C 395.335 148.847,395.287 148.502,395.111 148.383 C 394.936 148.264,394.652 147.705,394.480 147.140 L 394.167 146.114 353.667 188.400 M242.983 309.582 L 237.466 309.682 228.624 318.924 C 223.761 324.008,205.431 343.145,187.891 361.451 C 170.351 379.758,156.000 394.838,156.000 394.963 C 156.000 395.173,156.626 395.290,158.083 395.350 C 158.404 395.364,158.667 395.518,158.667 395.694 C 158.667 395.869,159.039 395.945,159.495 395.863 C 159.950 395.780,160.402 395.842,160.500 396.000 C 160.598 396.158,161.050 396.220,161.505 396.137 C 161.961 396.055,162.333 396.125,162.333 396.293 C 162.333 396.462,162.821 396.615,163.417 396.633 C 164.829 396.677,166.151 396.881,168.000 397.340 C 168.825 397.545,169.909 397.654,170.409 397.582 C 170.908 397.510,171.358 397.561,171.409 397.694 C 171.969 399.183,204.350 400.014,221.500 398.980 C 264.566 396.383,291.939 383.142,297.211 362.356 L 298.020 359.170 297.989 335.669 C 297.973 322.743,297.873 311.529,297.768 310.750 L 297.576 309.333 273.038 309.408 C 259.542 309.449,246.017 309.528,242.983 309.582 M261.000 334.677 C 273.614 338.335,277.300 355.286,267.384 364.036 C 256.330 373.790,238.736 366.016,238.633 351.332 C 238.550 339.456,249.461 331.331,261.000 334.677 " stroke="none" fill="#fccc39" fill-rule="evenodd"></path><path id="path1" d="M184.638 0.351 C 184.472 0.454,183.133 0.509,181.663 0.475 C 180.193 0.440,178.922 0.524,178.837 0.661 C 178.752 0.798,178.267 0.859,177.758 0.797 C 176.736 0.672,168.132 1.411,165.667 1.836 C 165.208 1.915,164.158 2.062,163.333 2.163 C 134.912 5.645,113.725 16.525,106.408 31.394 C 103.530 37.241,103.606 36.293,103.727 64.753 L 103.833 89.833 105.167 89.928 L 106.500 90.023 120.646 76.085 L 134.792 62.148 133.069 60.341 C 130.882 58.048,128.667 53.690,128.667 51.682 C 128.667 51.184,128.563 50.674,128.437 50.548 C 127.692 49.803,128.752 43.536,130.107 40.667 C 131.272 38.199,135.472 33.764,137.372 32.995 C 137.992 32.743,138.575 32.441,138.667 32.324 C 139.632 31.084,147.654 30.605,150.408 31.624 C 150.825 31.778,151.354 31.838,151.583 31.758 C 151.813 31.677,152.000 31.790,152.000 32.008 C 152.000 32.226,152.225 32.318,152.500 32.213 C 152.775 32.107,153.000 32.148,153.000 32.303 C 153.000 32.459,153.446 32.771,153.992 32.997 C 154.537 33.222,155.278 33.662,155.637 33.974 C 155.997 34.286,156.692 34.832,157.182 35.187 C 158.390 36.063,158.910 36.575,159.101 37.077 C 159.193 37.321,167.103 29.674,177.784 19.014 C 187.971 8.847,196.235 0.457,196.147 0.370 C 195.921 0.143,185.003 0.126,184.638 0.351 M59.833 103.555 C 38.588 105.421,22.822 116.282,12.253 136.333 C 9.301 141.935,5.237 153.043,4.453 157.654 C 4.374 158.119,4.166 158.950,3.991 159.500 C 3.688 160.450,2.654 165.703,1.991 169.667 C 1.672 171.570,1.346 174.416,1.150 177.000 C 1.088 177.825,1.015 178.500,0.987 178.500 C 0.818 178.500,0.328 186.204,0.162 191.449 L 0.017 196.065 16.259 180.053 C 25.191 171.247,45.975 150.557,62.445 134.076 L 92.389 104.109 78.111 103.866 C 70.258 103.732,63.233 103.581,62.500 103.530 C 61.767 103.479,60.567 103.490,59.833 103.555 " stroke="none" fill="#347cb0" fill-rule="evenodd"></path><path id="path2" d="M310.234 129.069 C 310.091 159.582,310.194 157.776,308.128 166.000 C 303.461 184.575,291.156 197.955,274.253 202.833 C 264.896 205.533,262.630 205.642,214.333 205.729 C 192.058 205.768,175.567 205.883,177.686 205.984 L 181.539 206.167 142.853 246.539 L 104.167 286.911 103.986 279.705 C 103.886 275.742,103.812 290.875,103.821 313.333 L 103.837 354.167 104.713 357.333 C 109.179 373.484,127.228 388.578,147.050 392.739 C 147.297 392.791,147.575 392.924,147.667 393.035 C 147.830 393.232,151.674 394.222,153.349 394.498 C 153.815 394.575,154.554 394.770,154.990 394.931 C 155.663 395.180,155.938 395.044,156.808 394.035 C 157.372 393.381,173.065 376.943,191.682 357.506 C 210.299 338.069,228.214 319.358,231.492 315.924 L 237.454 309.682 242.977 309.582 C 246.015 309.528,237.737 309.449,224.583 309.408 L 200.667 309.333 200.667 302.667 L 200.667 296.000 268.083 295.919 C 332.206 295.841,333.438 295.829,293.291 295.669 L 251.081 295.500 282.124 263.093 C 299.197 245.269,331.392 211.659,353.667 188.404 C 383.501 157.257,394.226 146.260,394.393 146.645 C 394.590 147.099,394.623 147.093,394.643 146.603 C 394.656 146.293,394.514 145.945,394.328 145.830 C 394.142 145.715,394.075 145.481,394.181 145.310 C 394.286 145.140,394.205 145.000,394.000 145.000 C 393.795 145.000,393.709 144.867,393.810 144.705 C 394.060 144.301,393.345 142.333,392.948 142.333 C 392.772 142.333,392.724 142.177,392.842 141.985 C 392.961 141.794,392.913 141.457,392.737 141.235 C 392.562 141.014,392.077 139.864,391.662 138.679 C 386.128 122.904,370.880 106.827,358.000 103.189 C 357.542 103.059,355.817 102.560,354.167 102.079 L 351.167 101.206 330.766 101.088 L 310.365 100.971 310.234 129.069 " stroke="none" fill="#fcd643" fill-rule="evenodd"></path><path id="path3" d="M251.620 148.001 L 205.740 193.650 200.120 193.750 C 197.029 193.806,205.761 193.884,219.525 193.925 C 249.970 194.016,253.702 193.724,263.500 190.480 C 282.185 184.294,293.124 172.010,296.877 153.000 C 297.408 150.306,297.949 114.565,297.601 105.092 L 297.500 102.352 251.620 148.001 M73.272 298.583 C 76.629 298.637,82.029 298.637,85.272 298.583 C 88.514 298.528,85.767 298.484,79.167 298.484 C 72.567 298.484,69.914 298.529,73.272 298.583 " stroke="none" fill="#346c94" fill-rule="evenodd"></path><path id="path4" d="M150.167 206.175 C 147.476 206.559,144.759 207.104,141.333 207.948 C 137.527 208.886,130.693 211.730,126.610 214.076 C 117.815 219.129,109.305 229.558,106.679 238.500 C 103.926 247.879,103.340 256.007,103.903 277.039 L 104.167 286.911 142.853 246.539 L 181.540 206.167 177.187 205.956 C 169.504 205.584,153.390 205.715,150.167 206.175 " stroke="none" fill="#fce454" fill-rule="evenodd"></path><path id="path5" d="M227.500 50.667 L 188.168 90.000 194.584 90.000 L 201.000 90.000 201.000 96.833 L 201.000 103.667 187.667 103.667 L 174.334 103.667 93.307 184.417 C 48.742 228.829,12.147 265.131,11.985 265.087 C 11.823 265.044,11.776 265.231,11.881 265.504 C 11.986 265.777,12.230 266.000,12.425 266.000 C 12.619 266.000,12.685 266.093,12.571 266.206 C 12.458 266.320,12.584 266.632,12.852 266.900 C 13.120 267.168,13.254 267.525,13.150 267.694 C 13.046 267.862,13.120 268.000,13.314 268.000 C 13.508 268.000,13.649 268.112,13.627 268.250 C 13.523 268.912,13.700 269.352,13.996 269.169 C 14.185 269.052,14.241 269.186,14.127 269.483 C 14.018 269.768,14.103 270.000,14.317 270.000 C 14.531 270.000,14.619 270.141,14.513 270.313 C 14.406 270.485,14.561 270.761,14.856 270.926 C 15.151 271.091,15.380 271.326,15.363 271.447 C 15.269 272.139,15.376 272.346,15.718 272.135 C 15.946 271.994,16.013 272.043,15.882 272.255 C 15.760 272.452,15.880 272.832,16.148 273.100 C 16.416 273.368,16.571 273.651,16.493 273.729 C 15.884 274.338,24.953 284.715,28.907 287.934 C 40.419 297.305,46.647 298.775,73.438 298.442 L 90.961 298.225 91.086 271.029 C 91.222 241.326,91.216 241.429,93.381 233.345 C 99.549 210.304,115.305 196.791,138.833 194.362 C 140.784 194.161,155.321 193.972,173.879 193.908 L 205.591 193.798 251.609 148.014 L 297.627 102.230 297.730 75.531 C 297.847 45.171,297.851 45.234,295.916 39.500 C 293.430 32.132,286.529 22.953,280.554 19.068 C 279.791 18.572,278.867 17.894,278.500 17.562 C 277.633 16.775,274.240 14.821,273.917 14.922 C 273.779 14.965,273.667 14.850,273.667 14.667 C 273.667 14.483,273.554 14.363,273.417 14.399 C 272.923 14.530,271.661 13.946,271.833 13.667 C 271.998 13.400,271.133 12.984,270.006 12.789 C 269.734 12.741,269.459 12.544,269.394 12.349 C 269.329 12.155,269.133 12.085,268.957 12.193 C 268.781 12.302,268.274 12.153,267.830 11.862 C 267.387 11.571,266.980 11.333,266.928 11.333 C 266.875 11.333,249.133 29.033,227.500 50.667 " stroke="none" fill="#3471a1" fill-rule="evenodd"></path><path id="path6" d="M190.088 0.239 C 190.595 0.316,191.345 0.314,191.755 0.235 C 192.165 0.156,191.750 0.093,190.833 0.095 C 189.917 0.098,189.581 0.163,190.088 0.239 M195.471 0.231 C 196.393 0.380,195.482 1.349,177.845 18.989 C 161.851 34.984,157.406 39.770,160.075 38.121 C 160.290 37.987,160.340 38.052,160.198 38.282 C 160.068 38.493,160.120 38.667,160.314 38.667 C 160.508 38.667,160.643 38.779,160.615 38.917 C 160.586 39.054,160.881 39.851,161.269 40.688 C 167.080 53.196,156.350 67.958,143.280 65.436 C 141.934 65.177,140.571 64.940,140.250 64.911 C 139.929 64.882,139.667 64.715,139.667 64.540 C 139.667 64.365,139.575 64.314,139.463 64.426 C 139.352 64.537,138.693 64.271,138.000 63.833 C 137.307 63.396,136.648 63.129,136.537 63.241 C 136.425 63.353,136.333 63.269,136.333 63.056 C 136.333 62.842,136.162 62.667,135.953 62.667 C 135.744 62.667,135.407 62.479,135.203 62.250 C 134.919 61.929,131.569 65.080,120.675 75.917 L 106.517 90.000 147.343 90.000 L 188.168 90.000 227.651 50.515 C 260.210 17.956,267.021 10.993,266.484 10.813 C 266.126 10.693,265.195 10.310,264.415 9.962 C 263.636 9.614,262.736 9.288,262.415 9.238 C 262.095 9.188,261.661 9.040,261.450 8.908 C 259.031 7.397,243.464 3.504,235.167 2.335 C 234.067 2.180,232.117 1.899,230.833 1.710 C 227.547 1.226,221.908 0.676,217.727 0.431 C 213.449 0.180,194.089 0.006,195.471 0.231 M267.814 11.844 C 268.170 12.113,268.620 12.329,268.814 12.323 C 269.008 12.317,268.875 12.092,268.520 11.823 C 268.164 11.554,267.714 11.338,267.520 11.344 C 267.325 11.350,267.458 11.575,267.814 11.844 M272.333 14.125 C 272.791 14.393,273.228 14.549,273.305 14.473 C 273.512 14.266,273.262 14.108,272.333 13.861 L 271.500 13.639 272.333 14.125 M82.961 103.992 L 92.422 104.167 46.188 150.253 L -0.045 196.340 0.117 206.253 C 0.297 217.335,1.197 227.506,2.676 235.167 C 5.120 247.826,7.642 256.347,11.110 263.667 C 11.501 264.492,11.778 265.317,11.725 265.500 C 11.627 265.842,28.177 249.377,120.875 156.909 L 174.250 103.667 123.875 103.742 C 96.169 103.784,77.757 103.896,82.961 103.992 " stroke="none" fill="#3474ac" fill-rule="evenodd"></path><path id="path7" d="" stroke="none" fill="#1009c40" fill-rule="evenodd"></path></g></svg>